<mxfile host="app.diagrams.net" modified="2023-06-05T05:50:14.981Z" agent="Mozilla/5.0 (Windows NT 10.0; Win64; x64) AppleWebKit/537.36 (KHTML, like Gecko) Chrome/113.0.0.0 Safari/537.36 Edg/113.0.1774.57" etag="5N_76Bk-3HTYpXJu-ER_" version="21.3.7" type="device">
  <diagram name="페이지-1" id="DcE2heKrIR7IktoQO1Jv">
    <mxGraphModel dx="2833" dy="928" grid="1" gridSize="10" guides="1" tooltips="1" connect="1" arrows="1" fold="1" page="1" pageScale="1" pageWidth="827" pageHeight="1169" math="0" shadow="0">
      <root>
        <mxCell id="0" />
        <mxCell id="1" parent="0" />
        <mxCell id="rqEXYIxj2KwW-6Ojv2Ma-38" value="" style="group" parent="1" vertex="1" connectable="0">
          <mxGeometry x="-80" y="70" width="827" height="2235.601515151515" as="geometry" />
        </mxCell>
        <mxCell id="rqEXYIxj2KwW-6Ojv2Ma-4" value="&lt;span style=&quot;font-size: 36px;&quot;&gt;&lt;b&gt;TeamProjectMemo&lt;/b&gt;&lt;/span&gt;" style="text;html=1;strokeColor=none;fillColor=none;align=center;verticalAlign=middle;whiteSpace=wrap;rounded=0;" parent="rqEXYIxj2KwW-6Ojv2Ma-38" vertex="1">
          <mxGeometry x="-220" y="-20" width="60" height="30" as="geometry" />
        </mxCell>
        <mxCell id="rqEXYIxj2KwW-6Ojv2Ma-1" value="FRAME&lt;br&gt;&lt;br&gt;&lt;br&gt;&lt;br&gt;&lt;br&gt;&lt;br&gt;&lt;br&gt;&lt;br&gt;&lt;br&gt;&lt;br&gt;&lt;br&gt;&lt;br&gt;&lt;br&gt;&lt;br&gt;&lt;br&gt;&lt;br&gt;&lt;br&gt;&lt;br&gt;&lt;br&gt;&lt;br&gt;&lt;br&gt;&lt;br&gt;&lt;br&gt;&lt;br&gt;&lt;br&gt;&lt;br&gt;&lt;br&gt;&lt;br&gt;&lt;br&gt;&lt;br&gt;&lt;br&gt;&lt;br&gt;&lt;br&gt;&lt;br&gt;&lt;br&gt;&lt;br&gt;&lt;br&gt;&lt;br&gt;&lt;br&gt;&lt;br&gt;&lt;br&gt;&lt;br&gt;&lt;br&gt;&lt;br&gt;&lt;br&gt;&lt;br&gt;&lt;br&gt;&lt;br&gt;&lt;br&gt;&lt;br&gt;&lt;br&gt;&lt;br&gt;&lt;br&gt;&lt;br&gt;&lt;br&gt;&lt;br&gt;&lt;br&gt;&lt;br&gt;" style="shape=folder;fontStyle=1;spacingTop=10;tabWidth=40;tabHeight=14;tabPosition=left;html=1;whiteSpace=wrap;" parent="1" vertex="1">
          <mxGeometry x="-760" y="130" width="980" height="890" as="geometry" />
        </mxCell>
        <mxCell id="rqEXYIxj2KwW-6Ojv2Ma-2" value="MEMO&lt;br&gt;&lt;br&gt;&lt;br&gt;&lt;br&gt;&lt;br&gt;&lt;br&gt;&lt;br&gt;&lt;br&gt;&lt;br&gt;&lt;br&gt;&lt;br&gt;&lt;br&gt;&lt;br&gt;&lt;br&gt;&lt;br&gt;&lt;br&gt;&lt;br&gt;&lt;br&gt;&lt;br&gt;&lt;br&gt;&lt;br&gt;&lt;br&gt;&lt;br&gt;&lt;br&gt;&lt;br&gt;&lt;br&gt;&lt;br&gt;" style="shape=folder;fontStyle=1;spacingTop=10;tabWidth=40;tabHeight=14;tabPosition=left;html=1;whiteSpace=wrap;" parent="1" vertex="1">
          <mxGeometry x="-430" y="1070" width="650" height="450" as="geometry" />
        </mxCell>
        <mxCell id="rqEXYIxj2KwW-6Ojv2Ma-6" value="&lt;p style=&quot;margin:0px;margin-top:4px;text-align:center;&quot;&gt;&lt;b&gt;Memo&lt;/b&gt;&lt;/p&gt;&lt;hr size=&quot;1&quot;&gt;&lt;p style=&quot;margin:0px;margin-left:4px;&quot;&gt;- operation: MemoAbstractOperation&lt;/p&gt;&lt;p style=&quot;margin:0px;margin-left:4px;&quot;&gt;+ index: int&lt;/p&gt;&lt;p style=&quot;margin:0px;margin-left:4px;&quot;&gt;+ name: password&lt;/p&gt;&lt;p style=&quot;margin:0px;margin-left:4px;&quot;&gt;+ password: String&lt;/p&gt;&lt;p style=&quot;margin:0px;margin-left:4px;&quot;&gt;+ memo: String&lt;/p&gt;&lt;p style=&quot;margin:0px;margin-left:4px;&quot;&gt;+ day: String&lt;/p&gt;&lt;p style=&quot;margin:0px;margin-left:4px;&quot;&gt;+ memoList: HashMap&amp;lt;Integer, Memo&amp;gt;&lt;/p&gt;&lt;hr size=&quot;1&quot;&gt;&lt;p style=&quot;margin:0px;margin-left:4px;&quot;&gt;+ Memo(int index, String name, String password, String memo, String day): String&lt;/p&gt;" style="verticalAlign=top;align=left;overflow=fill;fontSize=12;fontFamily=Helvetica;html=1;whiteSpace=wrap;container=1;" parent="1" vertex="1">
          <mxGeometry x="-400" y="1145.524393939394" width="237.06" height="193.41045454545454" as="geometry" />
        </mxCell>
        <mxCell id="rqEXYIxj2KwW-6Ojv2Ma-9" value="&lt;p style=&quot;margin:0px;margin-top:4px;text-align:center;&quot;&gt;&lt;i&gt;&amp;lt;&amp;lt;Abstract&amp;gt;&amp;gt;&lt;/i&gt;&lt;/p&gt;&lt;p style=&quot;margin:0px;margin-top:4px;text-align:center;&quot;&gt;&lt;b&gt;MemoAbstractOperation&lt;/b&gt;&lt;/p&gt;&lt;hr size=&quot;1&quot;&gt;&lt;p style=&quot;margin:0px;margin-left:4px;&quot;&gt;&lt;/p&gt;&lt;p style=&quot;margin:0px;margin-left:4px;&quot;&gt;+ Memo(int index, String name, String password, String memo, String day): String&lt;/p&gt;" style="verticalAlign=top;align=left;overflow=fill;fontSize=12;fontFamily=Helvetica;html=1;whiteSpace=wrap;container=1;" parent="1" vertex="1">
          <mxGeometry x="-400" y="1381.9601160541586" width="237.06" height="89.26499032882013" as="geometry" />
        </mxCell>
        <mxCell id="rqEXYIxj2KwW-6Ojv2Ma-10" value="&lt;p style=&quot;margin:0px;margin-top:4px;text-align:center;&quot;&gt;&lt;b&gt;MemoSear&lt;/b&gt;&lt;b style=&quot;background-color: initial;&quot;&gt;chOperation&lt;/b&gt;&lt;/p&gt;&lt;hr size=&quot;1&quot;&gt;&lt;p style=&quot;margin:0px;margin-left:4px;&quot;&gt;&lt;/p&gt;&lt;p style=&quot;margin:0px;margin-left:4px;&quot;&gt;+ Memo(int index, String name, String password, String memo, String day): String&lt;/p&gt;" style="verticalAlign=top;align=left;overflow=fill;fontSize=12;fontFamily=Helvetica;html=1;whiteSpace=wrap;container=1;" parent="1" vertex="1">
          <mxGeometry x="-43.53" y="1344.6527272727274" width="237.06" height="48.06576402321083" as="geometry" />
        </mxCell>
        <mxCell id="rqEXYIxj2KwW-6Ojv2Ma-12" value="&lt;p style=&quot;margin:0px;margin-top:4px;text-align:center;&quot;&gt;&lt;b&gt;MemoInsertOperation&lt;/b&gt;&lt;/p&gt;&lt;hr size=&quot;1&quot;&gt;&lt;p style=&quot;margin:0px;margin-left:4px;&quot;&gt;&lt;/p&gt;&lt;p style=&quot;margin:0px;margin-left:4px;&quot;&gt;+ Memo(int index, String name, String password, String memo, String day): String&lt;/p&gt;" style="verticalAlign=top;align=left;overflow=fill;fontSize=12;fontFamily=Helvetica;html=1;whiteSpace=wrap;container=1;" parent="1" vertex="1">
          <mxGeometry x="-43" y="1296.5911992263057" width="237.06" height="48.06576402321083" as="geometry" />
        </mxCell>
        <mxCell id="rqEXYIxj2KwW-6Ojv2Ma-13" value="&lt;p style=&quot;margin:0px;margin-top:4px;text-align:center;&quot;&gt;&lt;b&gt;MemoCorrect&lt;/b&gt;&lt;b style=&quot;background-color: initial;&quot;&gt;Operation&lt;/b&gt;&lt;/p&gt;&lt;hr size=&quot;1&quot;&gt;&lt;p style=&quot;margin:0px;margin-left:4px;&quot;&gt;&lt;/p&gt;&lt;p style=&quot;margin:0px;margin-left:4px;&quot;&gt;+ Memo(int index, String name, String password, String memo, String day): String&lt;/p&gt;" style="verticalAlign=top;align=left;overflow=fill;fontSize=12;fontFamily=Helvetica;html=1;whiteSpace=wrap;container=1;" parent="1" vertex="1">
          <mxGeometry x="-43.53" y="1392.7184912959383" width="237.06" height="48.06576402321083" as="geometry" />
        </mxCell>
        <mxCell id="rqEXYIxj2KwW-6Ojv2Ma-14" value="&lt;p style=&quot;margin:0px;margin-top:4px;text-align:center;&quot;&gt;&lt;b&gt;MemoDelete&lt;/b&gt;&lt;b style=&quot;background-color: initial;&quot;&gt;Operation&lt;/b&gt;&lt;/p&gt;&lt;hr size=&quot;1&quot;&gt;&lt;p style=&quot;margin:0px;margin-left:4px;&quot;&gt;&lt;/p&gt;&lt;p style=&quot;margin:0px;margin-left:4px;&quot;&gt;+ Memo(int index, String name, String password, String memo, String day): String&lt;/p&gt;" style="verticalAlign=top;align=left;overflow=fill;fontSize=12;fontFamily=Helvetica;html=1;whiteSpace=wrap;container=1;" parent="1" vertex="1">
          <mxGeometry x="-43.53" y="1440.784255319149" width="237.06" height="48.06576402321083" as="geometry" />
        </mxCell>
        <mxCell id="rqEXYIxj2KwW-6Ojv2Ma-16" value="Extends" style="endArrow=block;endSize=16;endFill=0;html=1;rounded=0;fontFamily=Helvetica;fontSize=12;fontColor=default;entryX=1;entryY=0.25;entryDx=0;entryDy=0;exitX=0;exitY=0.5;exitDx=0;exitDy=0;" parent="1" source="rqEXYIxj2KwW-6Ojv2Ma-12" target="rqEXYIxj2KwW-6Ojv2Ma-9" edge="1">
          <mxGeometry width="160" relative="1" as="geometry">
            <mxPoint x="-153" y="1327.4906189555127" as="sourcePoint" />
            <mxPoint x="-160" y="1324.0573500967118" as="targetPoint" />
          </mxGeometry>
        </mxCell>
        <mxCell id="rqEXYIxj2KwW-6Ojv2Ma-17" value="Extends" style="endArrow=block;endSize=16;endFill=0;html=1;rounded=0;fontFamily=Helvetica;fontSize=12;fontColor=default;exitX=0;exitY=0.5;exitDx=0;exitDy=0;entryX=0.992;entryY=0.323;entryDx=0;entryDy=0;entryPerimeter=0;" parent="1" target="rqEXYIxj2KwW-6Ojv2Ma-9" edge="1">
          <mxGeometry width="160" relative="1" as="geometry">
            <mxPoint x="-43" y="1368.6898452611217" as="sourcePoint" />
            <mxPoint x="-170" y="1324.0573500967118" as="targetPoint" />
          </mxGeometry>
        </mxCell>
        <mxCell id="rqEXYIxj2KwW-6Ojv2Ma-18" value="Extends" style="endArrow=block;endSize=16;endFill=0;html=1;rounded=0;fontFamily=Helvetica;fontSize=12;fontColor=default;exitX=0;exitY=0.5;exitDx=0;exitDy=0;entryX=0.992;entryY=0.621;entryDx=0;entryDy=0;entryPerimeter=0;" parent="1" source="rqEXYIxj2KwW-6Ojv2Ma-13" target="rqEXYIxj2KwW-6Ojv2Ma-9" edge="1">
          <mxGeometry width="160" relative="1" as="geometry">
            <mxPoint x="-153" y="1327.4906189555127" as="sourcePoint" />
            <mxPoint x="-170" y="1324.0573500967118" as="targetPoint" />
          </mxGeometry>
        </mxCell>
        <mxCell id="rqEXYIxj2KwW-6Ojv2Ma-19" value="Extends" style="endArrow=block;endSize=16;endFill=0;html=1;rounded=0;fontFamily=Helvetica;fontSize=12;fontColor=default;entryX=1;entryY=0.75;entryDx=0;entryDy=0;exitX=0;exitY=0.5;exitDx=0;exitDy=0;" parent="1" source="rqEXYIxj2KwW-6Ojv2Ma-14" target="rqEXYIxj2KwW-6Ojv2Ma-9" edge="1">
          <mxGeometry width="160" relative="1" as="geometry">
            <mxPoint x="-153" y="1327.4906189555127" as="sourcePoint" />
            <mxPoint x="-33" y="1471.687911025145" as="targetPoint" />
          </mxGeometry>
        </mxCell>
        <mxCell id="rqEXYIxj2KwW-6Ojv2Ma-56" value="Use" style="endArrow=open;endSize=12;dashed=1;html=1;rounded=0;fontFamily=Helvetica;fontSize=12;fontColor=default;exitX=0.5;exitY=1;exitDx=0;exitDy=0;" parent="1" source="rqEXYIxj2KwW-6Ojv2Ma-50" edge="1">
          <mxGeometry width="160" relative="1" as="geometry">
            <mxPoint x="-638" y="855.3030303030305" as="sourcePoint" />
            <mxPoint x="-450" y="670" as="targetPoint" />
          </mxGeometry>
        </mxCell>
        <mxCell id="rqEXYIxj2KwW-6Ojv2Ma-49" value="&lt;p style=&quot;margin:0px;margin-top:4px;text-align:center;&quot;&gt;&lt;b&gt;MainFrame&lt;/b&gt;&lt;/p&gt;&lt;hr size=&quot;1&quot;&gt;&lt;p style=&quot;border-color: var(--border-color); margin: 0px 0px 0px 4px;&quot;&gt;+ actionPerformed(ActionEvent e): void&lt;br style=&quot;border-color: var(--border-color);&quot;&gt;&lt;/p&gt;&lt;p style=&quot;border-color: var(--border-color); margin: 0px 0px 0px 4px;&quot;&gt;- mainFrame(): void&lt;/p&gt;&lt;p style=&quot;border-color: var(--border-color); margin: 0px 0px 0px 4px;&quot;&gt;+&amp;nbsp;&lt;u style=&quot;border-color: var(--border-color);&quot;&gt;main(String args): void&lt;/u&gt;&lt;/p&gt;" style="verticalAlign=top;align=left;overflow=fill;fontSize=12;fontFamily=Helvetica;html=1;whiteSpace=wrap;strokeColor=default;fontColor=default;fillColor=default;" parent="1" vertex="1">
          <mxGeometry x="-142.93999999999994" y="760.000909090909" width="263.53" height="86.06060606060605" as="geometry" />
        </mxCell>
        <mxCell id="rqEXYIxj2KwW-6Ojv2Ma-54" value="Use" style="endArrow=open;endSize=12;dashed=1;html=1;rounded=0;fontFamily=Helvetica;fontSize=12;fontColor=default;entryX=0.5;entryY=1;entryDx=0;entryDy=0;exitX=0.5;exitY=0;exitDx=0;exitDy=0;" parent="1" source="rqEXYIxj2KwW-6Ojv2Ma-49" target="rqEXYIxj2KwW-6Ojv2Ma-43" edge="1">
          <mxGeometry width="160" relative="1" as="geometry">
            <mxPoint x="-185" y="760" as="sourcePoint" />
            <mxPoint x="-348" y="680" as="targetPoint" />
          </mxGeometry>
        </mxCell>
        <mxCell id="rqEXYIxj2KwW-6Ojv2Ma-43" value="&lt;p style=&quot;border-color: var(--border-color); margin: 4px 0px 0px; text-align: center;&quot;&gt;&lt;b style=&quot;border-color: var(--border-color);&quot;&gt;Element&lt;/b&gt;&lt;/p&gt;&lt;hr size=&quot;1&quot;&gt;&lt;p style=&quot;border-color: var(--border-color); margin: 4px 0px 0px;&quot;&gt;&lt;span style=&quot;background-color: initial;&quot;&gt;&amp;nbsp; + mainFrame: JFrame&lt;/span&gt;&lt;br&gt;&lt;/p&gt;&lt;p style=&quot;margin:0px;margin-left:4px;&quot;&gt;&amp;nbsp;+ writeFrame: JFrame&lt;br style=&quot;border-color: var(--border-color);&quot;&gt;&amp;nbsp;+ listFrame: JFrame&lt;br style=&quot;border-color: var(--border-color);&quot;&gt;&lt;br style=&quot;border-color: var(--border-color);&quot;&gt;&amp;nbsp;+ logo: JButton&lt;br style=&quot;border-color: var(--border-color);&quot;&gt;&amp;nbsp;+ writeButton&lt;br style=&quot;border-color: var(--border-color);&quot;&gt;&amp;nbsp;+ listBtn: JButton&lt;br style=&quot;border-color: var(--border-color);&quot;&gt;&amp;nbsp;+ notice: JButton&lt;br style=&quot;border-color: var(--border-color);&quot;&gt;&amp;nbsp;+ saveBtn: JButton&lt;br style=&quot;border-color: var(--border-color);&quot;&gt;&amp;nbsp;+ cancleBtn: JButton&lt;br style=&quot;border-color: var(--border-color);&quot;&gt;&amp;nbsp;+ searchBtn: JButton&lt;br style=&quot;border-color: var(--border-color);&quot;&gt;&lt;br style=&quot;border-color: var(--border-color);&quot;&gt;&amp;nbsp;+ nameTxt: JTextField&lt;br style=&quot;border-color: var(--border-color);&quot;&gt;&amp;nbsp;+ pwTxt: JTextField&lt;br style=&quot;border-color: var(--border-color);&quot;&gt;&amp;nbsp;+ numberTxt: JTextField&lt;br style=&quot;border-color: var(--border-color);&quot;&gt;&amp;nbsp;&lt;br style=&quot;border-color: var(--border-color);&quot;&gt;&amp;nbsp;+ memoTxt: JTextArea&lt;br style=&quot;border-color: var(--border-color);&quot;&gt;&lt;br style=&quot;border-color: var(--border-color);&quot;&gt;&amp;nbsp;+ memoList: JList&lt;br style=&quot;border-color: var(--border-color);&quot;&gt;&lt;br style=&quot;border-color: var(--border-color);&quot;&gt;&amp;nbsp;+ nameLabel: JLabel&lt;br style=&quot;border-color: var(--border-color);&quot;&gt;&amp;nbsp;+ pwLabel: JLabel&lt;br style=&quot;border-color: var(--border-color);&quot;&gt;&amp;nbsp;+ numberLabel: JLabel&lt;br style=&quot;border-color: var(--border-color);&quot;&gt;&lt;br style=&quot;border-color: var(--border-color);&quot;&gt;&amp;nbsp;+ memoDelete: JButton&lt;br style=&quot;border-color: var(--border-color);&quot;&gt;&amp;nbsp;+ memoEdit: JButton&lt;br&gt;&lt;/p&gt;&lt;hr size=&quot;1&quot;&gt;&lt;p style=&quot;margin:0px;margin-left:4px;&quot;&gt;&amp;nbsp;+ Memo(int index, String name, String password, String memo, String day): String&lt;/p&gt;" style="verticalAlign=top;align=left;overflow=fill;fontSize=12;fontFamily=Helvetica;html=1;whiteSpace=wrap;container=1;" parent="1" vertex="1">
          <mxGeometry x="-730" y="220" width="563.53" height="450" as="geometry" />
        </mxCell>
        <mxCell id="rqEXYIxj2KwW-6Ojv2Ma-53" value="Use" style="endArrow=open;endSize=12;dashed=1;html=1;rounded=0;fontFamily=Helvetica;fontSize=12;fontColor=default;entryX=0.5;entryY=1;entryDx=0;entryDy=0;exitX=0.5;exitY=0;exitDx=0;exitDy=0;" parent="1" source="rqEXYIxj2KwW-6Ojv2Ma-48" target="rqEXYIxj2KwW-6Ojv2Ma-43" edge="1">
          <mxGeometry width="160" relative="1" as="geometry">
            <mxPoint x="-130" y="760" as="sourcePoint" />
            <mxPoint x="30" y="760" as="targetPoint" />
          </mxGeometry>
        </mxCell>
        <mxCell id="rqEXYIxj2KwW-6Ojv2Ma-48" value="&lt;p style=&quot;margin:0px;margin-top:4px;text-align:center;&quot;&gt;&lt;b&gt;ListFrame&lt;/b&gt;&lt;/p&gt;&lt;hr size=&quot;1&quot;&gt;&lt;p style=&quot;border-color: var(--border-color); margin: 0px 0px 0px 4px;&quot;&gt;&amp;nbsp;- selectedNum: int&lt;/p&gt;&lt;p style=&quot;margin:0px;margin-left:4px;&quot;&gt;&amp;nbsp;- main: MainFrame&lt;br style=&quot;border-color: var(--border-color);&quot;&gt;&amp;nbsp;- memo: private&lt;br&gt;&lt;/p&gt;&lt;hr size=&quot;1&quot;&gt;&lt;p style=&quot;border-color: var(--border-color); margin: 0px 0px 0px 4px;&quot;&gt;&amp;nbsp;+ valueChanged(ListSelectionEvent e): void&lt;/p&gt;&lt;p style=&quot;border-color: var(--border-color); margin: 0px 0px 0px 4px;&quot;&gt;&amp;nbsp;+ actionPerformed(ActionEvent e): void&lt;/p&gt;&lt;p style=&quot;border-color: var(--border-color); margin: 0px 0px 0px 4px;&quot;&gt;&amp;nbsp;+ setSampleData(): void&lt;/p&gt;&lt;p style=&quot;border-color: var(--border-color); margin: 0px 0px 0px 4px;&quot;&gt;&amp;nbsp;- listFrame(): void&lt;/p&gt;" style="verticalAlign=top;align=left;overflow=fill;fontSize=12;fontFamily=Helvetica;html=1;whiteSpace=wrap;strokeColor=default;fontColor=default;fillColor=default;" parent="1" vertex="1">
          <mxGeometry x="-670" y="760" width="263.53" height="150" as="geometry" />
        </mxCell>
        <mxCell id="rqEXYIxj2KwW-6Ojv2Ma-51" value="HashMap" style="endArrow=open;endSize=12;dashed=1;html=1;rounded=0;fontFamily=Helvetica;fontSize=12;fontColor=default;exitX=0.5;exitY=1;exitDx=0;exitDy=0;" parent="1" source="rqEXYIxj2KwW-6Ojv2Ma-48" target="rqEXYIxj2KwW-6Ojv2Ma-6" edge="1">
          <mxGeometry width="160" relative="1" as="geometry">
            <mxPoint x="-160" y="800" as="sourcePoint" />
            <mxPoint y="800" as="targetPoint" />
          </mxGeometry>
        </mxCell>
        <mxCell id="rqEXYIxj2KwW-6Ojv2Ma-50" value="&lt;p style=&quot;margin:0px;margin-top:4px;text-align:center;&quot;&gt;&lt;b&gt;WriteFrame&lt;/b&gt;&lt;/p&gt;&lt;hr size=&quot;1&quot;&gt;&lt;p style=&quot;border-color: var(--border-color); margin: 0px 0px 0px 4px;&quot;&gt;&amp;nbsp;- writeFrame(): void&lt;/p&gt;&lt;p style=&quot;border-color: var(--border-color); margin: 0px 0px 0px 4px;&quot;&gt;&lt;br&gt;&lt;/p&gt;" style="verticalAlign=top;align=left;overflow=fill;fontSize=12;fontFamily=Helvetica;html=1;whiteSpace=wrap;strokeColor=default;fontColor=default;fillColor=default;" parent="1" vertex="1">
          <mxGeometry x="-406.46999999999997" y="759.9969696969697" width="263.53" height="53.78787878787879" as="geometry" />
        </mxCell>
        <mxCell id="pBEFcMNbhRXqsw11I399-1" value="Use" style="endArrow=open;endSize=12;dashed=1;html=1;rounded=0;fontFamily=Helvetica;fontSize=12;fontColor=default;entryX=0.5;entryY=1;entryDx=0;entryDy=0;" edge="1" parent="1" source="rqEXYIxj2KwW-6Ojv2Ma-6" target="rqEXYIxj2KwW-6Ojv2Ma-50">
          <mxGeometry width="160" relative="1" as="geometry">
            <mxPoint x="-265" y="824" as="sourcePoint" />
            <mxPoint x="-440" y="680" as="targetPoint" />
          </mxGeometry>
        </mxCell>
      </root>
    </mxGraphModel>
  </diagram>
</mxfile>
